<?xml version="1.0" encoding="UTF-8"?>
<svg id="_レイヤー_1" data-name="レイヤー 1" xmlns="http://www.w3.org/2000/svg" viewBox="0 0 997.71 999.92">
  <defs>
    <style>
      .cls-1 {
        fill: #5f7adb;
      }
    </style>
  </defs>
  <path class="cls-1" d="m498.86,0C223.35,0,0,223.84,0,499.96s223.35,499.96,498.86,499.96,498.86-223.84,498.86-499.96S774.37,0,498.86,0Zm428.26,651.63c-20.18,56.16-50.32,111.67-90.9,155.64-15.58,16.89-33.29,31.9-52.84,43.98-48.16,29.76-110.33,39.64-162.17,12.63-23.88-12.44-45.26-32.81-60.65-54.96-10.19-14.68-18.69-30.45-26.57-46.47-25.7-52.24-39.97-111.04-73.18-159.42-4.58-6.67-9.55-13.07-14.86-19.16-18.88-21.64-41.14-36.63-65.81-50.72-26.56-15.17-57.21-21.29-85.94-31.34-13.52-4.73-26.58-9.68-40.21-14.05-14.75-4.74-29.52-9.67-43.28-16.9-19.67-10.34-37.71-23.71-53.66-39.17-21.03-20.39-37.47-48.48-44.25-77.15-9.98-42.2.21-86.5,21.51-123.62,19.08-33.25,46.56-61.03,76.65-84.72,46.32-36.46,98.48-62.33,154.37-80.34,38.23-12.32,79.21-17.88,119.43-18.57,3.32-.06,6.64-.08,9.95-.07,62.95.16,125.97,13.13,183.89,37.86,53.9,23.03,102.63,56.12,143.82,98.02,36.6,37.22,66.89,80.72,88.63,128.24,25.09,54.83,39.75,114.53,40.67,174.93.44,28.93-1.82,57.87-6.25,86.45-4.14,27.04-9.11,53.09-18.38,78.9Z"/>
  <path class="cls-1" d="m844.78,380.71c-12.04-33.79-29.43-65.52-50.38-94.56-46.19-64.02-112.36-113.03-188.14-135.58-59.46-17.69-124.73-22.29-185.77-10.8-23.03,4.34-45.79,11.04-68.05,20.35-10.83,4.53-21.45,9.55-31.88,14.95-27.15,14.06-52.33,32.1-73.94,53.8-20.4,20.49-40,44.96-49.23,72.82-10.19,30.73-8.14,65.29,10.68,92.05,15.94,22.66,36.81,41.73,60.57,55.89,23.51,14,50.62,21.96,76.51,30.27,26.92,8.65,53.16,19.94,76.83,35.55,54.32,35.82,81.86,95.19,109.4,151.65,11.02,22.61,22.1,45.31,36.39,66.01,14.28,20.68,32,39.44,53.86,51.79,19,10.74,41.16,16.11,62.93,13.28,19.46-2.52,36.12-12.67,52.04-23.73,32.23-22.39,58.87-52.39,78.97-86.04,8.68-14.54,16.17-29.8,22.38-45.55,32.31-81.92,36.49-178.94,6.84-262.15Zm-82.79,220.37c-18.31,48.89-61.69,130.27-124.75,119.61-19.22-3.25-36.65-13.84-50.74-27.33-35.85-34.31-47.17-82.15-74.11-122.31-41.66-62.08-111.17-94.57-176.05-125.83-21.18-10.2-45.46-21.99-57.89-42.99-8.96-15.15-12.47-33.47-9.74-50.86,2.69-17.11,11.18-32.94,22.27-46.22,11.1-13.28,24.74-24.2,38.89-34.14,14-9.83,28.66-18.74,44.03-26.26,23.74-11.63,48.66-19.01,74.04-22.7,62.16-9.04,127.1,4.05,184.37,31.13,70.23,33.21,119.89,106.67,137.5,181.04,13.05,55.08,12.15,113.56-7.81,166.87Z"/>
  <path class="cls-1" d="m692.27,472.62c-4.65-32.98-17.68-64.77-37.66-91.4-7.57-10.09-16.12-19.47-25.83-27.51-8.09-6.71-16.94-12.45-26-17.78-20.39-11.99-41.47-21.33-64.79-25.67-1.95-.36-3.9-.7-5.86-1-21.18-3.31-42.88-3.3-64.05.07-16.68,2.65-33.17,6.71-48.97,12.75-5.71,2.18-11.34,4.59-16.76,7.4-15.69,8.13-29.63,19.65-40.59,33.54-6.47,8.2-12.03,17.56-13.4,27.93-2.11,16.02,6.31,31.99,18.19,42.94,11.87,10.94,26.87,17.75,41.61,24.29,37.45,16.62,71.64,40.55,98.91,71.32,13.18,14.88,24.73,31.2,34.3,48.63,12.17,22.17,22.59,51.89,46.59,64.09,15.94,8.1,36.04,5.67,51.06-4.02,8.33-5.37,15.24-12.72,21.08-20.74,3.63-4.98,6.88-10.24,9.87-15.63,21.93-39.52,28.56-84.77,22.3-129.2Zm-71.6,41.13c-3.6,25.7-21.88,66.1-54.62,53.01-15.43-6.17-24.57-21.21-34.18-33.87-10-13.19-20-26.51-32.12-37.85-14.87-13.91-32.42-24.39-48.9-36.19-7.5-5.37-15.62-10.27-19.65-18.77-3.86-8.14-4.17-18.02-.43-26.26,1.99-4.38,4.8-8.34,8.11-11.81,13.7-14.37,33.93-20.02,53-22.21,5.39-.62,10.83-.86,16.26-.73,16.62.4,33.16,4.3,48.14,11.54,6.45,3.12,12.61,6.86,18.38,11.12,35.13,25.98,52.05,68.9,46.01,112.03Z"/>
</svg>